<svg xmlns="http://www.w3.org/2000/svg" xmlns:xlink="http://www.w3.org/1999/xlink" width="47.988" height="46.224" viewBox="0 0 47.988 46.224">
  <defs>
    <filter id="shopicon" x="0" y="0" width="47.988" height="46.224" filterUnits="userSpaceOnUse">
      <feOffset dy="3" input="SourceAlpha"/>
      <feGaussianBlur stdDeviation="3" result="blur"/>
      <feFlood flood-opacity="0.161"/>
      <feComposite operator="in" in2="blur"/>
      <feComposite in="SourceGraphic"/>
    </filter>
  </defs>
  <g transform="matrix(1, 0, 0, 1, 0, 0)" filter="url(#shopicon)">
    <path id="shopicon-2" data-name="shopicon" d="M29.815,18.531a.962.962,0,0,0-.748-.411l-18.6-.8a.962.962,0,0,0-.083,1.922l17.343.748-3.41,10.639H9.141L6.4,15.7a.962.962,0,0,0-.595-.722l-4.49-1.764a.962.962,0,0,0-.7,1.791L4.6,16.574l2.79,15.189a.962.962,0,0,0,.947.788H8.8L7.745,35.487A.8.8,0,0,0,8.5,36.561h.741a2.887,2.887,0,1,0,4.291,0h6.293a2.886,2.886,0,1,0,4.291,0h.9a.8.8,0,1,0,0-1.6H9.64l.866-2.405H25.017a.962.962,0,0,0,.916-.668l4.009-12.508A.96.96,0,0,0,29.815,18.531ZM11.386,39.768a1.283,1.283,0,1,1,1.283-1.283A1.284,1.284,0,0,1,11.386,39.768Zm10.584,0a1.283,1.283,0,1,1,1.283-1.283A1.284,1.284,0,0,1,21.97,39.768Z" transform="translate(9 -7.15)" fill="#b1d0ff"/>
  </g>
</svg>
